<svg width="16" height="16" xmlns="http://www.w3.org/2000/svg" class="bi bi-patch-question-fill">

 <g>
  <title>background</title>
  <rect fill="none" id="canvas_background" height="402" width="582" y="-1" x="-1"/>
 </g>
 <g>
  <title>Layer 1</title>
  <path fill="#8a4fff" id="svg_1" d="m5.933,0.87a2.89,2.89 0 0 1 4.134,0l0.622,0.638l0.89,-0.011a2.89,2.89 0 0 1 2.924,2.924l-0.01,0.89l0.636,0.622a2.89,2.89 0 0 1 0,4.134l-0.637,0.622l0.011,0.89a2.89,2.89 0 0 1 -2.924,2.924l-0.89,-0.01l-0.622,0.636a2.89,2.89 0 0 1 -4.134,0l-0.622,-0.637l-0.89,0.011a2.89,2.89 0 0 1 -2.924,-2.924l0.01,-0.89l-0.636,-0.622a2.89,2.89 0 0 1 0,-4.134l0.637,-0.622l-0.011,-0.89a2.89,2.89 0 0 1 2.924,-2.924l0.89,0.01l0.622,-0.636l0,-0.001zm1.069,10.13a1,1 0 1 0 2,0a1,1 0 0 0 -2,0zm1.602,-2.027c0.04,-0.534 0.198,-0.815 0.846,-1.26c0.674,-0.475 1.05,-1.09 1.05,-1.986c0,-1.325 -0.92,-2.227 -2.262,-2.227c-1.02,0 -1.792,0.492 -2.1,1.29a1.71,1.71 0 0 0 -0.138,0.69c0,0.393 0.203,0.64 0.545,0.64c0.272,0 0.455,-0.147 0.564,-0.51c0.158,-0.592 0.525,-0.915 1.074,-0.915c0.61,0 1.03,0.446 1.03,1.084c0,0.563 -0.208,0.885 -0.822,1.325c-0.619,0.433 -0.926,0.914 -0.926,1.64l0,0.111c0,0.428 0.208,0.745 0.585,0.745c0.336,0 0.504,-0.24 0.554,-0.627z"/>
 </g>
</svg>